<svg width="216" height="33" viewBox="0 0 216 33" fill="none" xmlns="http://www.w3.org/2000/svg">
<g clip-path="url(#clip0_4104_296)">
<path d="M13.6332 23.4555L15.2355 32.3893L6.69607 29.3096L5.09375 20.376L13.6332 23.4555Z" fill="#F47878"/>
<path d="M20.5703 17.6011L13.6332 23.4551L5.09375 20.3757L12.0309 14.5215L20.5703 17.6011Z" fill="#E52525"/>
<path d="M20.5738 17.6006L22.1762 26.5342L15.239 32.3884L13.6367 23.4546L20.5738 17.6006Z" fill="#FFEEEE"/>
<path d="M22.7966 9.46081C22.9085 10.0795 22.969 10.7065 22.9777 11.3352C21.9258 8.97719 19.3678 7.54717 16.7117 8.02325C12.9154 8.63937 11.5077 11.5897 11.5077 11.5897C7.67313 9.26752 5.38846 10.0532 5.38846 10.0532C2.73269 10.5293 0.830512 12.7588 0.663654 15.3357C0.453348 14.7431 0.292361 14.1342 0.182333 13.5151C-0.93738 7.27207 3.21578 1.30288 9.46188 0.183251C15.708 -0.936383 21.6768 3.21797 22.7966 9.46081Z" fill="#E52525"/>
<path d="M51.1882 19.2434H54.8373V29.6182C52.1767 31.8603 48.4895 33.0007 44.7645 33.0007C36.5917 33.0007 30.5859 27.2621 30.5859 19.3952C30.5859 11.5282 36.5917 5.79004 44.8403 5.79004C49.0598 5.79004 52.6328 7.19632 55.0656 9.89451L52.7086 12.2509C50.5038 10.1223 47.9956 9.17252 44.9924 9.17252C38.8347 9.17252 34.3872 13.4669 34.3872 19.3952C34.3872 25.2479 38.8347 29.6182 44.9546 29.6182C47.1973 29.6182 49.2878 29.1241 51.1882 27.9079V19.2434Z" fill="white"/>
<path d="M80.6866 21.105V32.6961H77.0373V21.5229C77.0373 17.5706 75.0604 15.6325 71.6015 15.6325C67.7244 15.6325 65.2159 17.9508 65.2159 22.3214V32.6964H61.5664V4.49707H65.2155V15.4047C66.736 13.4665 69.2449 12.3643 72.323 12.3643C77.2271 12.3643 80.6866 15.1764 80.6866 21.105Z" fill="white"/>
<path d="M86.8047 6.32195C86.8047 4.99187 87.8687 3.92773 89.2755 3.92773C90.6822 3.92773 91.7462 4.95433 91.7462 6.24608C91.7462 7.61418 90.7194 8.67832 89.2755 8.67832C87.8687 8.67864 86.8047 7.65204 86.8047 6.32195ZM87.4506 12.5548H91.0998V32.6965H87.4506V12.5548Z" fill="white"/>
<path d="M109.385 31.5179C108.283 32.4679 106.609 32.9242 104.975 32.9242C100.908 32.9242 98.5897 30.6817 98.5897 26.6155V15.5566H95.168V12.5543H98.5892V8.14551H102.238V12.5543H108.016V15.5566H102.238V26.4634C102.238 28.6289 103.378 29.8459 105.393 29.8459C106.458 29.8459 107.484 29.5037 108.244 28.8956L109.385 31.5179Z" fill="white"/>
<path d="M113.793 4.49805H117.442V32.6974H113.793V4.49805Z" fill="white"/>
<path d="M122.535 22.6251C122.535 16.6206 126.982 12.3643 133.026 12.3643C139.07 12.3643 143.479 16.6206 143.479 22.6251C143.479 28.6296 139.07 32.9243 133.026 32.9243C126.982 32.9243 122.535 28.6297 122.535 22.6251ZM139.792 22.6251C139.792 18.3309 136.903 15.5567 133.026 15.5567C129.149 15.5567 126.222 18.3309 126.222 22.6251C126.222 26.9193 129.149 29.7311 133.026 29.7311C136.903 29.7311 139.792 26.9195 139.792 22.6251Z" fill="white"/>
<path d="M146.672 22.6251C146.672 16.6206 151.119 12.3643 157.163 12.3643C163.207 12.3643 167.617 16.6206 167.617 22.6251C167.617 28.6296 163.207 32.9243 157.163 32.9243C151.12 32.9243 146.672 28.6297 146.672 22.6251ZM163.929 22.6251C163.929 18.3309 161.041 15.5567 157.163 15.5567C153.286 15.5567 150.359 18.3309 150.359 22.6251C150.359 26.9193 153.286 29.7311 157.163 29.7311C161.041 29.7311 163.929 26.9195 163.929 22.6251Z" fill="white"/>
<path d="M183.998 31.5179C182.895 32.4679 181.222 32.9242 179.588 32.9242C175.521 32.9242 173.202 30.6817 173.202 26.6155V15.5566H169.781V12.5543H173.202V8.14551H176.851V12.5543H182.629V15.5566H176.851V26.4634C176.851 28.6289 177.991 29.8459 180.006 29.8459C181.071 29.8459 182.097 29.5037 182.857 28.8956L183.998 31.5179Z" fill="white"/>
</g>
<path d="M184.759 12V3.27273H188.253C188.895 3.27273 189.43 3.3679 189.859 3.55824C190.288 3.74858 190.611 4.01278 190.827 4.35085C191.043 4.68608 191.151 5.07244 191.151 5.50994C191.151 5.85085 191.082 6.15057 190.946 6.40909C190.81 6.66477 190.622 6.875 190.384 7.03977C190.148 7.2017 189.878 7.31676 189.574 7.38494V7.47017C189.906 7.48437 190.217 7.57812 190.507 7.75142C190.8 7.92472 191.037 8.16761 191.219 8.48011C191.401 8.78977 191.491 9.15909 191.491 9.58807C191.491 10.0511 191.376 10.4645 191.146 10.8281C190.919 11.1889 190.582 11.4744 190.136 11.6847C189.69 11.8949 189.141 12 188.487 12H184.759ZM186.604 10.4915H188.108C188.622 10.4915 188.997 10.3935 189.233 10.1974C189.469 9.99858 189.587 9.73437 189.587 9.40483C189.587 9.16335 189.528 8.95028 189.412 8.76562C189.295 8.58097 189.129 8.43608 188.913 8.33097C188.7 8.22585 188.446 8.1733 188.151 8.1733H186.604V10.4915ZM186.604 6.92472H187.972C188.224 6.92472 188.449 6.88068 188.645 6.79261C188.844 6.7017 189 6.57386 189.114 6.40909C189.23 6.24432 189.288 6.04688 189.288 5.81676C189.288 5.50142 189.176 5.24716 188.952 5.05398C188.73 4.8608 188.415 4.7642 188.006 4.7642H186.604V6.92472ZM192.692 12V3.27273H198.573V4.79403H194.537V6.87358H198.27V8.39489H194.537V10.4787H198.59V12H192.692ZM199.707 4.79403V3.27273H206.875V4.79403H204.203V12H202.379V4.79403H199.707ZM208.493 12H206.516L209.529 3.27273H211.907L214.915 12H212.938L210.752 5.26705H210.684L208.493 12ZM208.37 8.5696H213.04V10.0099H208.37V8.5696Z" fill="white"/>
<defs>
<clipPath id="clip0_4104_296">
<rect width="184" height="33" fill="white"/>
</clipPath>
</defs>
</svg>
