<?xml version="1.0" encoding="UTF-8"?>
<svg version="1.1" xmlns="http://www.w3.org/2000/svg" width="48" height="48">
<path d="M0 0 C15.84 0 31.68 0 48 0 C48 15.84 48 31.68 48 48 C32.16 48 16.32 48 0 48 C0 32.16 0 16.32 0 0 Z " fill="#020700" transform="translate(0,0)"/>
<path d="M0 0 C4.29 0 8.58 0 13 0 C13 2.64 13 5.28 13 8 C14.32 8 15.64 8 17 8 C17 6.68 17 5.36 17 4 C18.65 4 20.3 4 22 4 C22 2.68 22 1.36 22 0 C25.96 0 29.92 0 34 0 C34 3.96 34 7.92 34 12 C32.68 12 31.36 12 30 12 C30 13.65 30 15.3 30 17 C28.68 17 27.36 17 26 17 C26 18.32 26 19.64 26 21 C27.32 21 28.64 21 30 21 C30 22.65 30 24.3 30 26 C31.32 26 32.64 26 34 26 C34 29.96 34 33.92 34 38 C30.04 38 26.08 38 22 38 C22 36.68 22 35.36 22 34 C20.35 34 18.7 34 17 34 C17 32.68 17 31.36 17 30 C15.68 30 14.36 30 13 30 C13 32.64 13 35.28 13 38 C8.71 38 4.42 38 0 38 C0 25.46 0 12.92 0 0 Z " fill="#51F817" transform="translate(6,5)"/>
</svg>
